<?xml version="1.0" standalone="no"?>
<!DOCTYPE svg PUBLIC "-//W3C//DTD SVG 20010904//EN"
 "http://www.w3.org/TR/2001/REC-SVG-20010904/DTD/svg10.dtd">
<svg version="1.0" xmlns="http://www.w3.org/2000/svg"
 width="500.000000pt" height="500.000000pt" viewBox="0 0 500.000000 500.000000"
 preserveAspectRatio="xMidYMid meet">
<metadata>
Created by potrace 1.14, written by Peter Selinger 2001-2017
</metadata>
<g transform="translate(0.000000,500.000000) scale(0.100000,-0.100000)"
fill="#000000" stroke="none">
<path d="M4535 4865 c-674 -332 -888 -436 -892 -431 -3 2 -5 117 -5 254 l0
250 -36 -10 c-63 -17 -128 -55 -172 -100 -50 -51 -105 -159 -122 -240 -7 -32
-14 -58 -18 -58 -3 0 -4 85 -3 189 l2 189 -32 -8 c-59 -13 -125 -48 -171 -90
-47 -43 -99 -124 -111 -171 -6 -26 -7 -26 -113 -25 -180 0 -292 -21 -421 -80
-223 -102 -359 -286 -416 -561 -37 -176 -41 -510 -10 -773 15 -127 26 -208 31
-230 10 -44 11 -244 2 -280 -17 -65 -52 -121 -106 -171 -29 -27 -57 -49 -61
-49 -5 0 -37 13 -72 29 -89 40 -188 69 -262 77 -34 3 -65 8 -68 10 -4 2 -10
21 -14 41 -58 310 -287 504 -595 505 -209 0 -357 -79 -487 -259 -64 -88 -134
-258 -159 -388 -28 -145 -34 -207 -34 -355 0 -128 4 -183 15 -257 3 -18 7 -50
11 -70 7 -50 45 -205 52 -218 4 -5 7 -12 8 -15 0 -3 15 -50 32 -105 61 -191
72 -367 32 -516 -15 -55 -65 -157 -91 -185 -29 -31 -24 -42 19 -37 115 14 281
72 362 127 55 36 160 142 160 159 0 7 9 23 20 35 l20 22 62 -50 c34 -27 96
-67 137 -89 69 -36 373 -141 407 -141 9 0 14 -12 14 -37 1 -21 1 -199 1 -395
l0 -358 279 0 280 0 0 401 0 401 38 -6 c100 -16 124 -18 224 -20 59 -2 133 1
165 5 32 4 81 10 108 13 28 3 61 7 75 10 14 3 50 11 80 17 30 6 74 17 98 25
23 8 49 14 57 14 11 0 13 -66 14 -397 0 -219 1 -413 1 -430 l0 -33 315 0 315
0 0 608 0 608 60 62 c111 117 199 272 241 427 25 93 36 345 18 430 -22 107
-41 178 -65 241 -14 37 -23 69 -20 71 2 2 28 0 57 -5 75 -14 222 -8 299 12
219 57 393 210 461 406 31 89 35 235 8 328 -26 91 -78 194 -139 272 -117 149
-312 413 -385 518 l-77 114 53 56 c30 30 68 70 84 87 145 155 203 216 500 534
39 41 86 91 105 111 81 85 103 110 94 109 -5 0 -121 -56 -259 -124z"/>
</g>
</svg>
