<svg xmlns="http://www.w3.org/2000/svg" fill="none" viewBox="0 0 100 100"><g clip-path="url(#prefix__clip0)"><path fill="#D3D1CD" d="M40.2 83.48v11.88l-8.48 2.5-1.02-25c1.73.58 7.72 10.37 9.5 10.62z"/><path fill="#726D65" d="M40.2 95.35h-8.91V100h8.9v-4.65z"/><path fill="#D3D1CD" d="M70 75.7v19.44l-8.88 3.47-1.36-24.1c2.1-1.12 8.71 2.47 10.2 1.15l.04.05z"/><path fill="#726D65" d="M70 95.14h-8.88V100H70v-4.86z"/><path fill="#FCACDF" d="M16.3 78.85c-3.18 6.43-12.05 6.7-12.05 6.7S10 80.68 5.72 69.27c-4.29-11.41-2.04-31.95 11.5-31.95 8.76 0 11.47 6.46 12.29 11-.52-.02-16.5 26.83-12.91 30.24l-.3.28z"/><path fill="#DB91C5" d="M11.16 64.83a17.47 17.47 0 005.44 13.74l-.3.28c-3.18 6.43-12.05 6.7-12.05 6.7S10 80.68 5.72 69.27c-.34-.9-.63-1.84-.89-2.83 2.1-2.1 3.37-4.94 4.13-7.27.76-2.33 1-4.13 1-4.13.1-13.76 11.83-5.33 11.83-5.33l-.1.16c-5.79 2.68-10.16 8.51-10.53 14.95z"/><path fill="#847E74" d="M64.6 95.14h-7.25V100h7.24v-4.86zm-29.7.21h-5.86V100h5.86v-4.65z"/><path fill="#EDEAE4" d="M78.7 51.34c-1.32.05-2.7-.07-4.1-.4l-.04.2a25 25 0 011.71 5.65c1.07 6.04 0 13.23-6.32 18.87a27.07 27.07 0 01-5.36 3.68v15.8h-7.24V82.7s-8.42 2.04-17.15.8a31.05 31.05 0 01-5.3-1.22v13.09h-5.86v-11.1s-2-.38-4.63-1.4a17.5 17.5 0 01-7.82-4.3 17.47 17.47 0 01-5.43-13.73c.49-8.61 8.16-16.15 16.78-16.5A17.4 17.4 0 0140 52.48c1.75 1.5 5.61-17.81 5.61-30.48 0-12.67 13.14-9.96 13.14-9.96a15 15 0 01.55-4.22c1.65-5.63 6.46-5.92 6.46-5.92v9.57h.01c.29-9.74 7-10.17 7-10.17v10.2c-3.1 1.52 6.4 6.68 6.4 6.68a200.48 200.48 0 005.6 7.91l.16.22a151.5 151.5 0 003.16 4.06c8.2 10.16.8 20.6-9.38 20.96z"/><path fill="#FCACDF" d="M59.3 7.8c-.17.58-.3 1.2-.4 1.9-.1.7-.15 1.48-.15 2.33 0 0-10.87 1.39-10.87 14.06s7.8 21.35-1.13 26.82c-.06.04-.12.09-.2.12a5.66 5.66 0 01-2.02.74A5.72 5.72 0 0140 52.48a17.51 17.51 0 00-2.53-1.79c7.61-4.64.76-11.62 2.75-28.4C42.24 5.19 59.3 7.81 59.3 7.81z"/><path fill="#D3D1CD" d="M37.2 82.91c15.87 0 20.15-8.25 20.15-8.25v8.03s-11.65 3.97-20.15.22zM18.84 66.88c0 12.07 10.2 17.39 10.2 17.39s-2-.39-4.63-1.4a17.5 17.5 0 01-7.81-4.3 17.47 17.47 0 01-5.44-13.74c.49-8.62 8.16-16.15 16.78-16.5a17.9 17.9 0 011.57 0s-10.67 5.83-10.67 18.55z"/><path fill="#666" d="M80.65 40.48c-.72 0-1.32-.6-1.32-1.31 0-.72.6-1.32 1.32-1.32.71 0 1.31.6 1.31 1.32 0 .72-.6 1.31-1.31 1.31zm9.25-1.58c-.72 0-1.32-.6-1.32-1.3 0-.71.57-1.3 1.28-1.32.7-.02 1.31.54 1.35 1.25.03.73-.58 1.38-1.32 1.38zM65.78 28.55a2.59 2.59 0 01-.58-1.66c0-.6.17-1.25.5-1.8.33-.57.81-1.06 1.4-1.41a4.33 4.33 0 013.94-.26c.63.27 1.17.69 1.57 1.2.4.52.66 1.13.73 1.74.07.6-.03 1.22-.36 1.72a4.73 4.73 0 00-2.07-1.5 4.22 4.22 0 00-3.27.2c-.6.3-1.22.79-1.86 1.77zm19.16-2.23a4.04 4.04 0 00-2.44-.59c-.52.04-1.02.14-1.62.43-.59.3-1.22.79-1.85 1.77a2.58 2.58 0 01-.58-1.66c0-.61.16-1.25.5-1.8.32-.57.8-1.06 1.4-1.41a4.34 4.34 0 011.77-.6 184.25 184.25 0 002.65 3.64l.17.22z"/><path fill="#E58376" d="M65.18 35.7H61.8a1.65 1.65 0 010-3.29h3.37a1.64 1.64 0 010 3.3z"/><path fill="#D3D1CD" d="M56.15 38.01c.05.1.44.81 1.14 1.93A11.4 11.4 0 0156.15 38zM76.27 56.8C66.32 52.78 59.8 43.88 57.3 39.93c4.83 6.64 17.27 11.2 17.27 11.2a25 25 0 011.71 5.65z"/><path fill="#B5B4B4" d="M65.76 11.46h-3.92s1.6-8.5 3.92-9.57v9.57zm7.01-.6h-3.92s1.6-8.5 3.92-9.57v9.57z"/><path fill="#DB91C5" d="M58.9 9.7c-.1.7-.15 1.48-.15 2.33 0 0-10.87 1.39-10.87 14.06s7.8 21.35-1.13 26.82c-.06.04-.12.09-.2.13a5.66 5.66 0 01-2.02.73c8.17-10.33-.08-12.37-.08-28.42 0-13.77 10.5-15.5 14.45-15.65z"/><path fill="#F9D780" d="M96.25 0L90 6.64l-1.65 1.77-5.03 5.36-1.45 1.53-2.71 2.9-.83.87a4.85 4.85 0 01-2.6 1.45 4.69 4.69 0 01-4-1.05 4.8 4.8 0 011.03-7.96l2.16-1.06 1.93-.95 5.32-2.6 2.33-1.15 4.03-1.97 2.06-1.01L96.25 0z"/><path fill="#F9E9C7" d="M96.25 0L79.17 18.2l-.83.87a4.8 4.8 0 01-6.03.81L96.25 0z"/><path fill="#E0BE70" d="M83.33 13.77l-1.45 1.53c-.93-3.26-.36-6.34.3-8.4l2.33-1.15a14.18 14.18 0 00-1.18 8.02zm7.27-11a14.25 14.25 0 00-.59 3.87L88.36 8.4c-.22-1.68-.09-3.26.18-4.62l2.06-1.01zm-13.22 17.1c-.5.31-1.06.53-1.64.65a23.61 23.61 0 01-.81-10.07l1.93-.95c-.4 2.17-.78 6.14.52 10.37z"/></g><defs><clipPath id="prefix__clip0"><path fill="#fff" d="M0 0h100v100H0z"/></clipPath></defs></svg>